# xmcd
#
# Track frame offsets: 
#        150
#        20502
#        40132
#        60756
#        86158
#        109148
#        128458
#        153573
#        169342
#        189912
#        213217
#
# Disc length: 3031 seconds
#
# Revision: 0
# Processed by: cddbd v1.5.2PL0 Copyright (c) Steve Scherf et al.
# Submitted via: ExactAudioCopy v0.95a4
#
DISCID=850bd50b
DTITLE=Halfway To Hazard - Halfway To Hazard
DYEAR=2007
DGENRE=Country
TTITLE0=Countrified
TTITLE1=Taking Me On
TTITLE2=Cold
TTITLE3=Daisy
TTITLE4=I'm Tired
TTITLE5=Devil And The Cross
TTITLE6=Die By My Own Hand
TTITLE7=Country 'Til The Day We Die
TTITLE8=Got Back Up
TTITLE9=Burn It Down
TTITLE10=Welcome To Nashville
EXTD=
EXTT0=
EXTT1=
EXTT2=
EXTT3=
EXTT4=
EXTT5=
EXTT6=
EXTT7=
EXTT8=
EXTT9=
EXTT10=
PLAYORDER=
